<svg width="428" height="432" viewBox="0 0 428 432" fill="none" xmlns="http://www.w3.org/2000/svg">
<path d="M312.384 408.127C282.283 423.63 248.961 431.808 215.12 431.997C181.278 432.186 147.868 424.381 117.596 409.215C87.3238 394.049 61.0408 371.947 40.8763 344.702C20.7118 317.456 7.23279 285.832 1.53114 252.391L77.8665 239.312C81.5189 260.733 90.1534 280.991 103.07 298.444C115.988 315.898 132.824 330.055 152.216 339.771C171.608 349.486 193.01 354.485 214.688 354.364C236.367 354.243 257.712 349.005 276.994 339.074L312.384 408.127Z" fill="url(#paint0_linear_96_5)"/>
<path d="M427.983 191.377C423.976 156.371 411.487 122.879 391.605 93.8214C371.723 64.7639 345.052 41.0236 313.917 24.6706C282.783 8.31766 248.13 -0.151377 212.981 0.00204802C177.832 0.155473 143.254 8.9267 112.263 25.5509L150.967 98.0615C170.159 87.7668 191.572 82.3351 213.338 82.2401C235.105 82.145 256.564 87.3896 275.845 97.5164C295.125 107.643 311.642 122.345 323.954 140.339C336.266 158.333 344 179.074 346.481 200.752L427.983 191.377Z" fill="url(#paint1_linear_96_5)"/>
<path d="M5.10649 180.139H381.136L427.723 190.981C427.723 190.981 428.346 211.327 427.723 224.34C427.082 237.741 424.396 258.533 424.396 258.533H30.8961L1.77914 252.695C1.77914 252.695 -0.534573 228.478 0.115027 211.83C0.666342 197.701 5.10649 180.139 5.10649 180.139Z" fill="url(#paint2_linear_96_5)"/>
<defs>
<linearGradient id="paint0_linear_96_5" x1="307.926" y1="27.5212" x2="83.3472" y2="383.964" gradientUnits="userSpaceOnUse">
<stop stop-color="#3D3AC1"/>
<stop offset="0.516915" stop-color="#6563E7"/>
<stop offset="1" stop-color="#3C3ADC"/>
</linearGradient>
<linearGradient id="paint1_linear_96_5" x1="307.926" y1="27.5212" x2="83.3472" y2="383.964" gradientUnits="userSpaceOnUse">
<stop stop-color="#3D3AC1"/>
<stop offset="0.516915" stop-color="#6563E7"/>
<stop offset="1" stop-color="#3C3ADC"/>
</linearGradient>
<linearGradient id="paint2_linear_96_5" x1="307.926" y1="27.5212" x2="83.3472" y2="383.964" gradientUnits="userSpaceOnUse">
<stop stop-color="#3D3AC1"/>
<stop offset="0.516915" stop-color="#6563E7"/>
<stop offset="1" stop-color="#3C3ADC"/>
</linearGradient>
</defs>
</svg>
