<svg width="90" height="92" viewBox="0 0 90 92" fill="none" xmlns="http://www.w3.org/2000/svg">
<path d="M2.8125 89.4376H85.2188" stroke="#0D0D0D" stroke-width="4.21875" stroke-linecap="round" stroke-linejoin="round"/>
<path d="M7.59375 79.3124C9.10683 70.6932 13.594 62.8773 20.2743 57.2247C26.9547 51.5721 35.4055 48.4405 44.1563 48.3749C52.8892 48.3953 61.331 51.5171 67.9761 57.1834C74.6213 62.8498 79.0376 70.6923 80.4375 79.3124" stroke="#0D0D0D" stroke-width="4.21875" stroke-linecap="round" stroke-linejoin="round"/>
<path d="M44.1564 48.0938C48.195 48.0938 51.4689 44.8198 51.4689 40.7813C51.4689 36.7427 48.195 33.4688 44.1564 33.4688C40.1178 33.4688 36.8439 36.7427 36.8439 40.7813C36.8439 44.8198 40.1178 48.0938 44.1564 48.0938Z" stroke="#0D0D0D" stroke-width="4.21875" stroke-linecap="round" stroke-linejoin="round"/>
<path d="M44.1562 11.25V21.6562" stroke="#0D0D0D" stroke-width="4.21875" stroke-linecap="round" stroke-linejoin="round"/>
<path d="M22.5 18.2812V28.4063" stroke="#0D0D0D" stroke-width="4.21875" stroke-linecap="round" stroke-linejoin="round"/>
<path d="M65.8126 18.2812V28.4063" stroke="#0D0D0D" stroke-width="4.21875" stroke-linecap="round" stroke-linejoin="round"/>
</svg>
