<svg width="32" height="32" viewBox="0 0 32 32" fill="none" xmlns="http://www.w3.org/2000/svg">
<g id="Outline / Essentional, UI / Home Angle">
<g id="Vector">
<path d="M12 23C11.4477 23 11 23.4478 11 24C11 24.5523 11.4477 25 12 25H20C20.5523 25 21 24.5523 21 24C21 23.4478 20.5523 23 20 23H12Z" fill="white"/>
<path fill-rule="evenodd" clip-rule="evenodd" d="M15.9999 1.66699C15.0332 1.66699 14.1511 1.93248 13.1856 2.38313C12.251 2.81937 11.1702 3.4632 9.81568 4.2701L7.87486 5.42623C6.38271 6.31508 5.1937 7.02335 4.29343 7.70065C3.36408 8.39983 2.66655 9.1198 2.21199 10.068C1.75721 11.0166 1.63395 12.0094 1.67349 13.1681C1.71176 14.2897 1.90797 15.6532 2.15398 17.3629L2.54379 20.0719C2.86031 22.2718 3.11148 24.0175 3.48672 25.3765C3.87354 26.7776 4.42237 27.8896 5.41277 28.7424C6.40235 29.5945 7.58635 29.9756 9.03502 30.1572C10.442 30.3337 12.217 30.3337 14.4563 30.3337H17.5435C19.7828 30.3337 21.5578 30.3337 22.9648 30.1572C24.4135 29.9756 25.5975 29.5945 26.587 28.7424C27.5774 27.8896 28.1263 26.7776 28.5131 25.3765C28.8883 24.0175 29.1395 22.2718 29.456 20.0719L29.8458 17.3628C30.0918 15.6532 30.288 14.2897 30.3263 13.1681C30.3659 12.0094 30.2426 11.0166 29.7878 10.068C29.3333 9.1198 28.6357 8.39983 27.7064 7.70065C26.8061 7.02335 25.6171 6.31508 24.1249 5.42623L22.1841 4.2701C20.8296 3.4632 19.7488 2.81937 18.8142 2.38313C17.8487 1.93248 16.9666 1.66699 15.9999 1.66699ZM10.794 6.01527C12.204 5.17534 13.1989 4.58407 14.0315 4.19543C14.8436 3.81637 15.4276 3.66699 15.9999 3.66699C16.5722 3.66699 17.1562 3.81637 17.9683 4.19543C18.8009 4.58407 19.7958 5.17534 21.2058 6.01527L23.0522 7.11519C24.6047 8.03996 25.7001 8.69411 26.504 9.29886C27.2886 9.88915 27.7183 10.3776 27.9843 10.9326C28.2502 11.4871 28.3607 12.1248 28.3275 13.0999C28.2934 14.0997 28.1141 15.3554 27.858 17.1351L27.4863 19.7182C27.1576 22.0024 26.9227 23.6219 26.5852 24.8443C26.2554 26.0388 25.8584 26.7305 25.282 27.2268C24.7049 27.7238 23.9566 28.0172 22.7159 28.1728C21.4478 28.3318 19.7982 28.3337 17.4747 28.3337H14.5251C12.2016 28.3337 10.552 28.3318 9.28389 28.1728C8.04317 28.0172 7.29495 27.7238 6.71778 27.2268C6.14142 26.7305 5.7444 26.0388 5.41459 24.8443C5.07711 23.6219 4.84217 22.0024 4.51349 19.7182L4.1418 17.1351C3.88573 15.3554 3.70644 14.0997 3.67233 13.0999C3.63905 12.1248 3.74962 11.4871 4.01545 10.9326C4.28151 10.3776 4.7112 9.88915 5.49581 9.29886C6.29965 8.69411 7.39514 8.03996 8.94756 7.11519L10.794 6.01527Z" fill="white"/>
</g>
</g>
</svg>
