<svg width="191" height="36" viewBox="0 0 191 36" fill="none" xmlns="http://www.w3.org/2000/svg">
<path d="M16.417 32.5721C14.835 33.3848 13.0839 33.8135 11.3054 33.8234C9.52687 33.8333 7.77104 33.4242 6.18012 32.6291C4.5892 31.834 3.20793 30.6754 2.14821 29.2471C1.08849 27.8187 0.380111 26.1608 0.0804673 24.4077L4.09218 23.722C4.28413 24.8451 4.73791 25.9071 5.41675 26.822C6.09559 27.737 6.98041 28.4792 7.99953 28.9885C9.01865 29.4979 10.1434 29.76 11.2827 29.7536C12.422 29.7473 13.5437 29.4726 14.5571 28.952L16.417 32.5721Z" fill="url(#paint0_linear_307_2543)"/>
<path d="M22.4921 21.2091C22.2816 19.3739 21.6252 17.6181 20.5804 16.0948C19.5355 14.5715 18.1338 13.3269 16.4976 12.4696C14.8613 11.6123 13.0402 11.1683 11.193 11.1764C9.34575 11.1844 7.52856 11.6442 5.89984 12.5158L7.93389 16.3171C8.9425 15.7774 10.0678 15.4926 11.2117 15.4877C12.3557 15.4827 13.4834 15.7576 14.4967 16.2885C15.51 16.8194 16.378 17.5901 17.025 18.5335C17.6721 19.4768 18.0785 20.5641 18.2089 21.7006L22.4921 21.2091Z" fill="url(#paint1_linear_307_2543)"/>
<path d="M0.268366 20.62H20.0301L22.4785 21.1883C22.4785 21.1883 22.5112 22.255 22.4785 22.9372C22.4448 23.6397 22.3036 24.7297 22.3036 24.7297H1.62371L0.0935004 24.4237C0.0935004 24.4237 -0.0280939 23.1541 0.00604509 22.2813C0.0350188 21.5406 0.268366 20.62 0.268366 20.62Z" fill="url(#paint2_linear_307_2543)"/>
<path d="M34.8605 29.1791C31.7267 29.1791 29.0852 27.0525 28.7942 24.1873L31.8833 23.2695C32.0848 25.0155 33.4503 26.1795 34.9948 26.1795C36.4051 26.1795 37.3229 25.508 37.3229 24.523C37.3229 21.5682 29.2867 23.3143 29.2867 17.5614C29.2867 14.9871 31.749 13.1515 34.8158 13.1515C37.8377 13.1515 40.2777 14.7633 40.8149 17.1584L37.6586 18.4791C37.3452 17.0689 36.2932 16.1511 34.8158 16.1511C33.5846 16.1511 32.8235 16.666 32.8235 17.539C32.8235 20.0237 40.882 18.0314 40.882 24.4335C40.882 27.2764 38.4645 29.1791 34.8605 29.1791ZM48.0172 29.1791C44.6147 29.1791 42.2419 26.7839 42.2419 23.359C42.2419 19.9341 44.6147 17.539 48.0172 17.539C51.0392 17.539 53.1433 19.0611 53.5015 21.5459L50.3228 22.1726C50.1438 21.0534 49.3155 20.3371 48.1515 20.3371C46.607 20.3371 45.622 21.5235 45.622 23.359C45.622 25.1946 46.6293 26.381 48.1515 26.381C49.3155 26.381 50.0542 25.7094 50.2781 24.6797L53.4791 25.3289C53.0762 27.7017 50.9944 29.1791 48.0172 29.1791ZM59.8903 17.539C62.957 17.539 65.0388 19.1283 65.0388 22.3069V29H61.8601V27.5674C61.211 28.5523 59.935 29.1791 58.6815 29.1791C56.4878 29.1791 54.9432 27.7017 54.9432 25.8214C54.9432 23.5829 56.5773 22.3741 59.8231 22.0383L61.8601 21.8369V21.7697C61.8601 20.6505 61.099 19.9789 59.8903 19.9789C58.8158 19.9789 58.0323 20.6281 57.9204 21.7249L55.0551 21.1877C55.4133 18.9716 57.4727 17.539 59.8903 17.539ZM59.4873 26.8287C60.9647 26.8287 61.8377 25.6423 61.8601 24.3216V24.2992V24.232V24.1425L59.7559 24.3887C58.6367 24.5007 58.0771 25.0603 58.0771 25.7094C58.0771 26.3362 58.5696 26.8287 59.4873 26.8287ZM67.591 29V17.718H70.8816V19.2178C71.5531 18.2329 72.7843 17.539 74.3288 17.539C76.8135 17.539 78.47 19.1507 78.47 21.6354V29H75.2018V22.5084C75.2018 21.2772 74.4407 20.449 73.2543 20.449C71.6874 20.449 70.8816 21.7249 70.8816 24.053V29H67.591ZM93.7111 29.1791C89.458 29.1791 85.8316 26.4481 85.8316 21.1653C85.8316 15.8825 89.5251 13.1515 93.7111 13.1515C97.6284 13.1515 100.359 15.2557 100.807 18.5015L97.2927 19.2402C96.9345 17.3599 95.5019 16.1735 93.6887 16.1735C91.3159 16.1735 89.3908 17.8971 89.3908 21.1653C89.3908 24.4335 91.2935 26.1347 93.6887 26.1347C95.5243 26.1347 96.845 25.0827 97.2031 23.4038L100.762 24.2096C100.024 27.3211 97.4046 29.1791 93.7111 29.1791ZM108.29 29.1791C104.798 29.1791 102.336 26.7167 102.336 23.359C102.336 20.0013 104.798 17.539 108.29 17.539C111.737 17.539 114.244 20.0013 114.244 23.359C114.244 26.7167 111.737 29.1791 108.29 29.1791ZM108.29 26.381C109.879 26.381 110.954 25.1498 110.954 23.359C110.954 21.5682 109.879 20.3371 108.29 20.3371C106.678 20.3371 105.604 21.5682 105.604 23.359C105.604 25.1498 106.678 26.381 108.29 26.381ZM116.208 29V17.718H119.499V19.2178C120.17 18.2329 121.401 17.539 122.946 17.539C125.431 17.539 127.087 19.1507 127.087 21.6354V29H123.819V22.5084C123.819 21.2772 123.058 20.449 121.871 20.449C120.304 20.449 119.499 21.7249 119.499 24.053V29H116.208ZM129.63 29V17.718H132.921V19.2178C133.592 18.2329 134.823 17.539 136.368 17.539C138.853 17.539 140.509 19.1507 140.509 21.6354V29H137.241V22.5084C137.241 21.2772 136.48 20.449 135.294 20.449C133.727 20.449 132.921 21.7249 132.921 24.053V29H129.63ZM153.887 23.068C153.887 23.5157 153.864 24.053 153.842 24.2992H145.739C146.052 25.687 146.992 26.4481 148.38 26.4481C149.499 26.4481 150.327 25.9333 150.574 24.9931L153.663 25.8214C152.991 27.9479 150.977 29.1791 148.29 29.1791C144.395 29.1791 142.493 26.1571 142.493 23.359C142.493 20.5609 144.194 17.539 148.089 17.539C152.163 17.539 153.887 20.5609 153.887 23.068ZM145.783 21.9712H150.372C150.26 20.8295 149.544 19.9789 148.089 19.9789C146.903 19.9789 146.097 20.6505 145.783 21.9712ZM161.1 29.1791C157.697 29.1791 155.325 26.7839 155.325 23.359C155.325 19.9341 157.697 17.539 161.1 17.539C164.122 17.539 166.226 19.0611 166.584 21.5459L163.406 22.1726C163.226 21.0534 162.398 20.3371 161.234 20.3371C159.69 20.3371 158.705 21.5235 158.705 23.359C158.705 25.1946 159.712 26.381 161.234 26.381C162.398 26.381 163.137 25.7094 163.361 24.6797L166.562 25.3289C166.159 27.7017 164.077 29.1791 161.1 29.1791ZM175.373 28.8881C174.836 29.0672 174.209 29.1791 173.538 29.1791C171.098 29.1791 169.24 27.8808 169.24 25.1498V20.449H167.449V17.718H169.24V14.4499H172.531V17.718H175.261V20.449H172.531V24.7245C172.531 25.7318 173.068 26.3138 173.874 26.3138C174.277 26.3138 174.769 26.2467 175.15 26.0452L175.373 28.8881Z" fill="white"/>
<path d="M173.637 1.25819C173.637 0.647381 174.132 0.152222 174.743 0.152222C175.354 0.152222 175.849 0.647381 175.849 1.25819V7.89401C175.849 8.50482 175.354 8.99998 174.743 8.99998C174.132 8.99998 173.637 8.50482 173.637 7.89401V1.25819Z" fill="#D7FB04"/>
<path d="M181.379 22.2716C180.768 22.2716 180.273 21.7765 180.273 21.1656C180.273 20.5548 180.768 20.0597 181.379 20.0597H188.015C188.626 20.0597 189.121 20.5548 189.121 21.1656C189.121 21.7765 188.626 22.2716 188.015 22.2716H181.379Z" fill="#D7FB04"/>
<path d="M188.86 5.30623C189.319 4.90299 190.018 4.94802 190.421 5.40681C190.824 5.8656 190.779 6.56441 190.321 6.96765L180.352 15.7292C179.893 16.1324 179.194 16.0874 178.791 15.6286C178.388 15.1698 178.433 14.471 178.892 14.0678L188.86 5.30623Z" fill="#D7FB04"/>
<defs>
<linearGradient id="paint0_linear_307_2543" x1="16.1827" y1="12.6191" x2="4.42184" y2="31.3315" gradientUnits="userSpaceOnUse">
<stop stop-color="#3D3AC1"/>
<stop offset="0.516915" stop-color="#6563E7"/>
<stop offset="1" stop-color="#3C3ADC"/>
</linearGradient>
<linearGradient id="paint1_linear_307_2543" x1="16.1827" y1="12.6191" x2="4.42184" y2="31.3315" gradientUnits="userSpaceOnUse">
<stop stop-color="#3D3AC1"/>
<stop offset="0.516915" stop-color="#6563E7"/>
<stop offset="1" stop-color="#3C3ADC"/>
</linearGradient>
<linearGradient id="paint2_linear_307_2543" x1="16.1827" y1="12.6191" x2="4.42184" y2="31.3315" gradientUnits="userSpaceOnUse">
<stop stop-color="#3D3AC1"/>
<stop offset="0.516915" stop-color="#6563E7"/>
<stop offset="1" stop-color="#3C3ADC"/>
</linearGradient>
</defs>
</svg>
