<svg width="191" height="36" viewBox="0 0 191 36" fill="none" xmlns="http://www.w3.org/2000/svg">
<path d="M16.417 32.5721C14.835 33.3848 13.0839 33.8135 11.3054 33.8234C9.52687 33.8333 7.77104 33.4242 6.18012 32.6291C4.5892 31.834 3.20793 30.6754 2.14821 29.2471C1.08849 27.8187 0.380111 26.1608 0.0804673 24.4077L4.09218 23.722C4.28413 24.8451 4.73791 25.9071 5.41675 26.822C6.09559 27.737 6.98041 28.4792 7.99953 28.9885C9.01865 29.4979 10.1434 29.76 11.2827 29.7536C12.422 29.7473 13.5437 29.4726 14.5571 28.952L16.417 32.5721Z" fill="url(#paint0_linear_307_2712)"/>
<path d="M22.4921 21.2091C22.2816 19.3739 21.6252 17.6181 20.5804 16.0948C19.5355 14.5715 18.1338 13.3269 16.4976 12.4696C14.8613 11.6123 13.0402 11.1683 11.193 11.1764C9.34575 11.1844 7.52856 11.6442 5.89984 12.5158L7.93389 16.3171C8.9425 15.7774 10.0678 15.4926 11.2117 15.4877C12.3557 15.4827 13.4834 15.7576 14.4967 16.2885C15.51 16.8194 16.378 17.5901 17.025 18.5335C17.6721 19.4768 18.0785 20.5641 18.2089 21.7006L22.4921 21.2091Z" fill="url(#paint1_linear_307_2712)"/>
<path d="M0.268366 20.62H20.0301L22.4785 21.1883C22.4785 21.1883 22.5112 22.255 22.4785 22.9372C22.4448 23.6397 22.3036 24.7297 22.3036 24.7297H1.62371L0.0935004 24.4237C0.0935004 24.4237 -0.0280939 23.1541 0.00604509 22.2813C0.0350188 21.5406 0.268366 20.62 0.268366 20.62Z" fill="url(#paint2_linear_307_2712)"/>
<path d="M34.8606 29.1791C31.7267 29.1791 29.0853 27.0525 28.7943 24.1873L31.8834 23.2695C32.0849 25.0155 33.4503 26.1795 34.9949 26.1795C36.4051 26.1795 37.3229 25.508 37.3229 24.523C37.3229 21.5682 29.2868 23.3143 29.2868 17.5614C29.2868 14.9871 31.7491 13.1515 34.8158 13.1515C37.8378 13.1515 40.2777 14.7633 40.815 17.1584L37.6587 18.4791C37.3453 17.0689 36.2932 16.1511 34.8158 16.1511C33.5847 16.1511 32.8236 16.666 32.8236 17.539C32.8236 20.0237 40.8821 18.0314 40.8821 24.4335C40.8821 27.2764 38.4645 29.1791 34.8606 29.1791ZM48.0173 29.1791C44.6148 29.1791 42.242 26.7839 42.242 23.359C42.242 19.9341 44.6148 17.539 48.0173 17.539C51.0392 17.539 53.1434 19.0611 53.5015 21.5459L50.3229 22.1726C50.1438 21.0534 49.3156 20.3371 48.1516 20.3371C46.607 20.3371 45.6221 21.5235 45.6221 23.359C45.6221 25.1946 46.6294 26.381 48.1516 26.381C49.3156 26.381 50.0543 25.7094 50.2781 24.6797L53.4792 25.3289C53.0762 27.7017 50.9944 29.1791 48.0173 29.1791ZM59.8903 17.539C62.957 17.539 65.0388 19.1283 65.0388 22.3069V29H61.8602V27.5674C61.211 28.5523 59.9351 29.1791 58.6815 29.1791C56.4878 29.1791 54.9433 27.7017 54.9433 25.8214C54.9433 23.5829 56.5774 22.3741 59.8232 22.0383L61.8602 21.8369V21.7697C61.8602 20.6505 61.0991 19.9789 59.8903 19.9789C58.8158 19.9789 58.0324 20.6281 57.9205 21.7249L55.0552 21.1877C55.4134 18.9716 57.4728 17.539 59.8903 17.539ZM59.4874 26.8287C60.9648 26.8287 61.8378 25.6423 61.8602 24.3216V24.2992V24.232V24.1425L59.756 24.3887C58.6368 24.5007 58.0771 25.0603 58.0771 25.7094C58.0771 26.3362 58.5696 26.8287 59.4874 26.8287ZM67.591 29V17.718H70.8816V19.2178C71.5532 18.2329 72.7843 17.539 74.3289 17.539C76.8136 17.539 78.4701 19.1507 78.4701 21.6354V29H75.2019V22.5084C75.2019 21.2772 74.4408 20.449 73.2544 20.449C71.6875 20.449 70.8816 21.7249 70.8816 24.053V29H67.591ZM93.7112 29.1791C89.458 29.1791 85.8317 26.4481 85.8317 21.1653C85.8317 15.8825 89.5252 13.1515 93.7112 13.1515C97.6285 13.1515 100.359 15.2557 100.807 18.5015L97.2927 19.2402C96.9346 17.3599 95.5019 16.1735 93.6888 16.1735C91.316 16.1735 89.3909 17.8971 89.3909 21.1653C89.3909 24.4335 91.2936 26.1347 93.6888 26.1347C95.5243 26.1347 96.845 25.0827 97.2032 23.4038L100.762 24.2096C100.024 27.3211 97.4047 29.1791 93.7112 29.1791ZM108.29 29.1791C104.798 29.1791 102.336 26.7167 102.336 23.359C102.336 20.0013 104.798 17.539 108.29 17.539C111.737 17.539 114.244 20.0013 114.244 23.359C114.244 26.7167 111.737 29.1791 108.29 29.1791ZM108.29 26.381C109.879 26.381 110.954 25.1498 110.954 23.359C110.954 21.5682 109.879 20.3371 108.29 20.3371C106.678 20.3371 105.604 21.5682 105.604 23.359C105.604 25.1498 106.678 26.381 108.29 26.381ZM116.208 29V17.718H119.499V19.2178C120.17 18.2329 121.401 17.539 122.946 17.539C125.431 17.539 127.087 19.1507 127.087 21.6354V29H123.819V22.5084C123.819 21.2772 123.058 20.449 121.871 20.449C120.305 20.449 119.499 21.7249 119.499 24.053V29H116.208ZM129.63 29V17.718H132.921V19.2178C133.592 18.2329 134.824 17.539 136.368 17.539C138.853 17.539 140.509 19.1507 140.509 21.6354V29H137.241V22.5084C137.241 21.2772 136.48 20.449 135.294 20.449C133.727 20.449 132.921 21.7249 132.921 24.053V29H129.63ZM153.887 23.068C153.887 23.5157 153.864 24.053 153.842 24.2992H145.739C146.052 25.687 146.992 26.4481 148.38 26.4481C149.499 26.4481 150.327 25.9333 150.574 24.9931L153.663 25.8214C152.991 27.9479 150.977 29.1791 148.29 29.1791C144.395 29.1791 142.493 26.1571 142.493 23.359C142.493 20.5609 144.194 17.539 148.089 17.539C152.163 17.539 153.887 20.5609 153.887 23.068ZM145.783 21.9712H150.372C150.26 20.8295 149.544 19.9789 148.089 19.9789C146.903 19.9789 146.097 20.6505 145.783 21.9712ZM161.1 29.1791C157.697 29.1791 155.325 26.7839 155.325 23.359C155.325 19.9341 157.697 17.539 161.1 17.539C164.122 17.539 166.226 19.0611 166.584 21.5459L163.406 22.1726C163.227 21.0534 162.398 20.3371 161.234 20.3371C159.69 20.3371 158.705 21.5235 158.705 23.359C158.705 25.1946 159.712 26.381 161.234 26.381C162.398 26.381 163.137 25.7094 163.361 24.6797L166.562 25.3289C166.159 27.7017 164.077 29.1791 161.1 29.1791ZM175.373 28.8881C174.836 29.0672 174.209 29.1791 173.538 29.1791C171.098 29.1791 169.24 27.8808 169.24 25.1498V20.449H167.449V17.718H169.24V14.4499H172.531V17.718H175.262V20.449H172.531V24.7245C172.531 25.7318 173.068 26.3138 173.874 26.3138C174.277 26.3138 174.769 26.2467 175.15 26.0452L175.373 28.8881Z" fill="#0D0D0D"/>
<path d="M173.637 1.25831C173.637 0.647503 174.132 0.152344 174.743 0.152344C175.354 0.152344 175.849 0.647503 175.849 1.25831V7.89413C175.849 8.50494 175.354 9.0001 174.743 9.0001C174.132 9.0001 173.637 8.50494 173.637 7.89413V1.25831Z" fill="#DAFB1D"/>
<path d="M181.379 22.2717C180.768 22.2717 180.273 21.7766 180.273 21.1658C180.273 20.555 180.768 20.0598 181.379 20.0598H188.015C188.626 20.0598 189.121 20.555 189.121 21.1658C189.121 21.7766 188.626 22.2717 188.015 22.2717H181.379Z" fill="#DAFB1D"/>
<path d="M188.86 5.30635C189.319 4.90311 190.018 4.94814 190.421 5.40693C190.824 5.86572 190.779 6.56453 190.321 6.96777L180.352 15.7293C179.893 16.1325 179.194 16.0875 178.791 15.6287C178.388 15.1699 178.433 14.4711 178.892 14.0679L188.86 5.30635Z" fill="#DAFB1D"/>
<defs>
<linearGradient id="paint0_linear_307_2712" x1="16.1827" y1="12.6191" x2="4.42184" y2="31.3315" gradientUnits="userSpaceOnUse">
<stop stop-color="#3D3AC1"/>
<stop offset="0.516915" stop-color="#6563E7"/>
<stop offset="1" stop-color="#3C3ADC"/>
</linearGradient>
<linearGradient id="paint1_linear_307_2712" x1="16.1827" y1="12.6191" x2="4.42184" y2="31.3315" gradientUnits="userSpaceOnUse">
<stop stop-color="#3D3AC1"/>
<stop offset="0.516915" stop-color="#6563E7"/>
<stop offset="1" stop-color="#3C3ADC"/>
</linearGradient>
<linearGradient id="paint2_linear_307_2712" x1="16.1827" y1="12.6191" x2="4.42184" y2="31.3315" gradientUnits="userSpaceOnUse">
<stop stop-color="#3D3AC1"/>
<stop offset="0.516915" stop-color="#6563E7"/>
<stop offset="1" stop-color="#3C3ADC"/>
</linearGradient>
</defs>
</svg>
