<svg width="23" height="23" viewBox="0 0 23 23" fill="none" xmlns="http://www.w3.org/2000/svg">
<path d="M8.29184 14.741C8.29184 15.2498 7.87935 15.6623 7.37053 15.6623C6.8617 15.6623 6.44922 15.2498 6.44922 14.741C6.44922 14.2322 6.8617 13.8197 7.37053 13.8197C7.87935 13.8197 8.29184 14.2322 8.29184 14.741Z" fill="#6260E4"/>
<path d="M11.9771 14.741C11.9771 15.2498 11.5646 15.6623 11.0558 15.6623C10.5469 15.6623 10.1345 15.2498 10.1345 14.741C10.1345 14.2322 10.5469 13.8197 11.0558 13.8197C11.5646 13.8197 11.9771 14.2322 11.9771 14.741Z" fill="#6260E4"/>
<path d="M15.6623 14.741C15.6623 15.2498 15.2498 15.6623 14.741 15.6623C14.2322 15.6623 13.8197 15.2498 13.8197 14.741C13.8197 14.2322 14.2322 13.8197 14.741 13.8197C15.2498 13.8197 15.6623 14.2322 15.6623 14.741Z" fill="#6260E4"/>
<path d="M5.52783 9.21301V7.37039C5.52783 7.05649 5.554 6.7487 5.60426 6.44908M16.5836 9.21301V7.37039C16.5836 4.31744 14.1086 1.84253 11.0557 1.84253C9.40467 1.84253 7.9227 2.56634 6.9098 3.71395" stroke="#6260E4" stroke-width="1.65836" stroke-linecap="round"/>
<path d="M10.1343 20.2689H7.37039C4.76453 20.2689 3.4616 20.2689 2.65207 19.4593C1.84253 18.6498 1.84253 17.3469 1.84253 14.741C1.84253 12.1351 1.84253 10.8322 2.65207 10.0227C3.4616 9.21313 4.76453 9.21313 7.37039 9.21313H14.7409C17.3467 9.21313 18.6497 9.21313 19.4592 10.0227C20.2687 10.8322 20.2687 12.1351 20.2687 14.741C20.2687 17.3469 20.2687 18.6498 19.4592 19.4593C18.6497 20.2689 17.3467 20.2689 14.7409 20.2689H13.8196" stroke="#6260E4" stroke-width="1.65836" stroke-linecap="round"/>
</svg>
