<svg width="32" height="32" viewBox="0 0 32 32" fill="none" xmlns="http://www.w3.org/2000/svg">
<path fill-rule="evenodd" clip-rule="evenodd" d="M16 1.66675C12.5022 1.66675 9.66663 4.50228 9.66663 8.00008C9.66663 11.4979 12.5022 14.3334 16 14.3334C19.4978 14.3334 22.3333 11.4979 22.3333 8.00008C22.3333 4.50228 19.4978 1.66675 16 1.66675ZM11.6666 8.00008C11.6666 5.60685 13.6067 3.66675 16 3.66675C18.3932 3.66675 20.3333 5.60685 20.3333 8.00008C20.3333 10.3933 18.3932 12.3334 16 12.3334C13.6067 12.3334 11.6666 10.3933 11.6666 8.00008Z" fill="#A4A4A4"/>
<path fill-rule="evenodd" clip-rule="evenodd" d="M16 16.3334C13.2808 16.3334 10.77 16.9611 8.90416 18.0273C7.06662 19.0773 5.66663 20.6803 5.66663 22.6667C5.66663 24.6532 7.06662 26.2562 8.90416 27.3062C10.77 28.3724 13.2808 29.0001 16 29.0001C18.7191 29.0001 21.2299 28.3724 23.0958 27.3062C24.9333 26.2562 26.3333 24.6532 26.3333 22.6667C26.3333 20.6803 24.9333 19.0773 23.0958 18.0273C21.2299 16.9611 18.7191 16.3334 16 16.3334ZM7.66663 22.6667C7.66663 21.7077 8.35597 20.644 9.89643 19.7638C11.4086 18.8997 13.5644 18.3334 16 18.3334C18.4355 18.3334 20.5913 18.8997 22.1035 19.7638C23.6439 20.644 24.3333 21.7077 24.3333 22.6667C24.3333 23.6258 23.6439 24.6895 22.1035 25.5697C20.5913 26.4338 18.4355 27.0001 16 27.0001C13.5644 27.0001 11.4086 26.4338 9.89643 25.5697C8.35597 24.6895 7.66663 23.6258 7.66663 22.6667Z" fill="#A4A4A4"/>
</svg>
